<?xml version="1.0" encoding="utf-8"?>
<!-- Generator: Adobe Illustrator 27.6.1, SVG Export Plug-In . SVG Version: 6.00 Build 0)  -->
<svg version="1.1" id="Layer_1" xmlns="http://www.w3.org/2000/svg" xmlns:xlink="http://www.w3.org/1999/xlink" x="0px" y="0px"
	 viewBox="0 0 774.5 210.9" style="enable-background:new 0 0 774.5 210.9;" xml:space="preserve">
<style type="text/css">
	.st0{fill:#84BD00;}
</style>
<g>
	<path class="st0" d="M773.4,49.8c0,3.4-0.6,6.5-1.7,9.2c-1.1,2.7-2.7,4.9-4.6,6.8s-4.1,3.3-6.7,4.3c-2.5,1-5.2,1.5-7.9,1.5
		s-5.4-0.5-7.9-1.5c-2.5-1-4.7-2.4-6.7-4.3c-1.9-1.9-3.4-4.1-4.6-6.8c-1.1-2.7-1.7-5.7-1.7-9.2c0-3.4,0.6-6.5,1.7-9.2
		c1.1-2.7,2.7-5,4.6-6.8c1.9-1.9,4.1-3.3,6.7-4.3c2.5-1,5.2-1.5,7.9-1.5s5.4,0.5,7.9,1.5c2.5,1,4.7,2.4,6.7,4.3s3.5,4.1,4.6,6.8
		C772.8,43.4,773.4,46.4,773.4,49.8z M767.3,49.8c0-2.4-0.4-4.6-1.1-6.5c-0.7-2-1.7-3.6-3-5c-1.3-1.4-2.9-2.5-4.7-3.2
		c-1.8-0.8-3.8-1.1-6-1.1s-4.2,0.4-6,1.1c-1.8,0.8-3.4,1.8-4.7,3.2c-1.3,1.4-2.3,3.1-3,5c-0.7,2-1.1,4.1-1.1,6.5
		c0,2.4,0.4,4.6,1.1,6.5c0.7,2,1.7,3.6,3,5c1.3,1.4,2.9,2.5,4.7,3.2c1.8,0.8,3.8,1.1,6,1.1s4.1-0.4,6-1.1c1.8-0.8,3.4-1.8,4.7-3.2
		c1.3-1.4,2.3-3.1,3-5C766.9,54.4,767.3,52.2,767.3,49.8z M756.2,60c-0.7-1.5-1.3-2.9-1.7-4c-0.5-1.1-1-2.2-1.6-3.1h-2.4V60h-5.8
		V39.5c1.4-0.3,2.6-0.5,3.8-0.7c1.2-0.1,2.2-0.2,3.1-0.2c6.4,0,9.7,2.4,9.7,7.3c0,2.5-1.1,4.3-3.2,5.5c0.4,0.7,0.8,1.3,1.2,1.9
		c0.3,0.6,0.7,1.3,1,1.9c0.3,0.7,0.7,1.4,1,2.2c0.3,0.8,0.7,1.7,1.2,2.7H756.2z M750.4,48.3h1.1c1.3,0,2.2-0.2,2.9-0.5
		c0.6-0.3,1-1,1-1.9c0-0.8-0.3-1.4-0.8-1.7c-0.6-0.3-1.4-0.5-2.5-0.5c-0.3,0-0.6,0-0.9,0c-0.3,0-0.6,0.1-0.8,0.1V48.3z"/>
</g>
<path class="st0" d="M652.7,110.4l29.7-42.8h33.9l-46.9,67c9.8,12.3,19.2,24.8,28.2,37.3c9,12.6,16.4,24.4,22.2,35.5h-35.2
	c-1.6-3.3-3.7-6.9-6.3-10.8c-2.6-3.9-5.3-8-8.2-12.3c-2.9-4.2-6-8.5-9.2-12.6c-3.2-4.2-6.3-8.1-9.3-11.8
	c-6.3,7.3-12.4,15.3-18.4,24.1s-11,16.6-14.9,23.4h-33c2.6-5.4,5.9-11,9.7-17c3.8-5.9,8-12,12.4-18.2s8.9-12.4,13.6-18.6
	c4.7-6.2,9.3-12.1,13.9-17.7l-47.5-68.3H623L652.7,110.4z"/>
<path d="M480.3,30.7l32.3-5.3v42.2h49.7v27h-49.7v56.9c0,11.2,1.8,19.2,5.3,24.1c3.6,4.8,9.6,7.2,18.2,7.2c5.9,0,11.1-0.6,15.6-1.9
	c4.5-1.2,8.2-2.4,10.8-3.5l5.3,25.7c-3.7,1.6-8.6,3.3-14.7,4.9c-6.1,1.7-13.2,2.5-21.4,2.5c-10,0-18.3-1.3-25-4s-12-6.5-15.9-11.6
	s-6.7-11.2-8.3-18.4c-1.6-7.2-2.4-15.5-2.4-24.7V30.7H480.3z"/>
<path d="M464.6,210.1c-9.6-0.2-17.6-1.2-23.9-3.2s-11.4-4.8-15.1-8.4c-3.7-3.7-6.4-8.2-7.9-13.6c-1.5-5.4-2.3-11.6-2.3-18.6V5.3
	L447.7,0v160.1c0,3.9,0.3,7.2,0.9,9.9s1.7,4.9,3.3,6.8c1.6,1.9,3.8,3.3,6.6,4.3c2.8,1,6.3,1.7,10.6,2.3L464.6,210.1z"/>
<path d="M388.1,203.1c-6.2,1.6-14.3,3.3-24.3,4.9c-10,1.7-20.9,2.5-32.9,2.5c-11.2,0-20.6-1.6-28.2-4.8s-13.6-7.7-18.2-13.4
	c-4.5-5.7-7.8-12.5-9.8-20.4s-2.9-16.6-2.9-26.1V67.6h32.3v73.2c0,15,2.2,25.7,6.5,32.1c4.4,6.4,12,9.6,22.9,9.6
	c3.9,0,8.1-0.2,12.4-0.5c4.4-0.4,7.6-0.8,9.8-1.3V67.6H388v135.5H388.1z"/>
<path d="M238.1,78c-4.4-5-10.2-8.9-17.5-11.6c-7.3-2.8-16.3-4.2-27-4.2c-8.9,0-17.3,0.7-25.2,2.2s-13.8,3-17.9,4.4l4,27.2
	c3.9-1.5,9-2.8,15.2-3.9c6.3-1.1,13.1-1.7,20.6-1.7c5.5,0,10.1,0.7,13.8,2.2s6.6,3.6,8.8,6.2c2.2,2.7,3.8,5.8,4.7,9.3
	s1.3,7.2,1.3,11.1v6.9l-12.6-1.4c-7.1-0.8-18.6-0.8-25.7,0l-31,3.5c-7.1,0.8-12.9,7.5-12.9,14.8v50.3c0,7.4,5.8,13.9,12.9,14.4
	l31.3,2.5c7.1,0.6,18.7,0.6,25.8,0l30.6-2.5c7.1-0.6,12.9-7.1,12.9-14.4v-30.1v-20.3v-23.5c0-8.5-0.9-16.3-2.8-23.4
	C245.6,89.1,242.5,83,238.1,78z M207.9,195.2c0.3,0.9-0.3,1.7-1.3,1.7h-26.1c-0.9,0-1.5-0.8-1.3-1.7l8-30.4c-5-2.5-8.5-7.7-8.5-13.8
	c0-8.4,6.6-15.3,14.8-15.3s14.8,6.9,14.8,15.3c0,6.1-3.5,11.3-8.5,13.8L207.9,195.2z"/>
<path d="M53.1,207.4C44.2,189.1,35,168,25.6,144.2S7.7,94.9,0,67.6h34.5c2,7.8,4.2,16.3,6.8,25.3s5.4,18,8.3,27c3,9,6,17.7,9.1,26.2
	s6,16.1,8.7,22.9c2.7-6.8,5.5-14.4,8.6-22.9c3-8.5,6-17.2,9-26.2c2.9-9,5.8-18,8.5-27s5-17.4,7-25.3h33.4
	c-7.7,27.3-16.2,52.8-25.6,76.6s-18.6,44.9-27.5,63.2L53.1,207.4L53.1,207.4z"/>
</svg>
