<?xml version="1.0" encoding="UTF-8"?>
<svg id="Layer_1" xmlns="http://www.w3.org/2000/svg" version="1.1" viewBox="0 0 774.5 210.9">
  <!-- Generator: Adobe Illustrator 29.8.1, SVG Export Plug-In . SVG Version: 2.1.1 Build 2)  -->
  <defs>
    <style>
      .st0, .st1 {
        fill: #84bd00;
      }

      .st2 {
        fill: #fff;
      }

      .st1 {
        font-family: ArialMT, Arial;
        font-size: 60px;
        isolation: isolate;
      }
    </style>
  </defs>
  <text class="st1" transform="translate(728.6 70.6)"><tspan x="0" y="0">®</tspan></text>
  <path class="st0" d="M652.7,110.4l29.7-42.8h33.9l-46.9,67c9.8,12.3,19.2,24.8,28.2,37.3,9,12.6,16.4,24.4,22.2,35.5h-35.2c-1.6-3.3-3.7-6.9-6.3-10.8-2.6-3.9-5.3-8-8.2-12.3-2.9-4.2-6-8.5-9.2-12.6-3.2-4.2-6.3-8.1-9.3-11.8-6.3,7.3-12.4,15.3-18.4,24.1s-11,16.6-14.9,23.4h-33c2.6-5.4,5.9-11,9.7-17,3.8-5.9,8-12,12.4-18.2s8.9-12.4,13.6-18.6c4.7-6.2,9.3-12.1,13.9-17.7l-47.5-68.3h35.6l29.7,42.8Z"/>
  <path class="st2" d="M480.3,30.7l32.3-5.3v42.2h49.7v27h-49.7v56.9c0,11.2,1.8,19.2,5.3,24.1,3.6,4.8,9.6,7.2,18.2,7.2s11.1-.6,15.6-1.9c4.5-1.2,8.2-2.4,10.8-3.5l5.3,25.7c-3.7,1.6-8.6,3.3-14.7,4.9-6.1,1.7-13.2,2.5-21.4,2.5s-18.3-1.3-25-4-12-6.5-15.9-11.6-6.7-11.2-8.3-18.4c-1.6-7.2-2.4-15.5-2.4-24.7V30.7h.2Z"/>
  <path class="st2" d="M464.6,210.1c-9.6-.2-17.6-1.2-23.9-3.2s-11.4-4.8-15.1-8.4c-3.7-3.7-6.4-8.2-7.9-13.6-1.5-5.4-2.3-11.6-2.3-18.6V5.3l32.3-5.3v160.1c0,3.9.3,7.2.9,9.9s1.7,4.9,3.3,6.8c1.6,1.9,3.8,3.3,6.6,4.3,2.8,1,6.3,1.7,10.6,2.3l-4.5,26.7Z"/>
  <path class="st2" d="M388.1,203.1c-6.2,1.6-14.3,3.3-24.3,4.9-10,1.7-20.9,2.5-32.9,2.5s-20.6-1.6-28.2-4.8-13.6-7.7-18.2-13.4c-4.5-5.7-7.8-12.5-9.8-20.4s-2.9-16.6-2.9-26.1v-78.2h32.3v73.2c0,15,2.2,25.7,6.5,32.1,4.4,6.4,12,9.6,22.9,9.6s8.1-.2,12.4-.5c4.4-.4,7.6-.8,9.8-1.3v-113.1h32.3v135.5h.1Z"/>
  <path class="st2" d="M238.1,78c-4.4-5-10.2-8.9-17.5-11.6-7.3-2.8-16.3-4.2-27-4.2s-17.3.7-25.2,2.2-13.8,3-17.9,4.4l4,27.2c3.9-1.5,9-2.8,15.2-3.9,6.3-1.1,13.1-1.7,20.6-1.7s10.1.7,13.8,2.2,6.6,3.6,8.8,6.2c2.2,2.7,3.8,5.8,4.7,9.3s1.3,7.2,1.3,11.1v6.9l-12.6-1.4c-7.1-.8-18.6-.8-25.7,0l-31,3.5c-7.1.8-12.9,7.5-12.9,14.8v50.3c0,7.4,5.8,13.9,12.9,14.4l31.3,2.5c7.1.6,18.7.6,25.8,0l30.6-2.5c7.1-.6,12.9-7.1,12.9-14.4v-73.9c0-8.5-.9-16.3-2.8-23.4-1.8-6.9-4.9-13-9.3-18ZM207.9,195.2c.3.9-.3,1.7-1.3,1.7h-26.1c-.9,0-1.5-.8-1.3-1.7l8-30.4c-5-2.5-8.5-7.7-8.5-13.8s6.6-15.3,14.8-15.3,14.8,6.9,14.8,15.3-3.5,11.3-8.5,13.8l8.1,30.4Z"/>
  <path class="st2" d="M53.1,207.4c-8.9-18.3-18.1-39.4-27.5-63.2C16.2,120.4,7.7,94.9,0,67.6h34.5c2,7.8,4.2,16.3,6.8,25.3s5.4,18,8.3,27c3,9,6,17.7,9.1,26.2s6,16.1,8.7,22.9c2.7-6.8,5.5-14.4,8.6-22.9,3-8.5,6-17.2,9-26.2,2.9-9,5.8-18,8.5-27s5-17.4,7-25.3h33.4c-7.7,27.3-16.2,52.8-25.6,76.6-9.4,23.8-18.6,44.9-27.5,63.2h-27.7Z"/>
</svg>